<svg xmlns="http://www.w3.org/2000/svg" xmlns:xlink="http://www.w3.org/1999/xlink" width="30" height="30" viewBox="0 0 30 30">
  <defs>
    <clipPath id="clip-path">
      <path id="Path_69" data-name="Path 69" d="M53.4,0a15,15,0,0,0,15-15,15,15,0,0,0-15-15,15,15,0,0,0-15,15A15,15,0,0,0,53.4,0Z" fill="#fdf7fb" clip-rule="evenodd"/>
    </clipPath>
    <clipPath id="clip-path-2">
      <path id="Path_68" data-name="Path 68" d="M-70,129H250V-5649H-70Z" fill="#fdf7fb"/>
    </clipPath>
    <clipPath id="clip-path-3">
      <path id="Path_72" data-name="Path 72" d="M59.7-20.953h-12a1.5,1.5,0,0,0-1.5,1.5v9a1.5,1.5,0,0,0,1.5,1.5h12a1.5,1.5,0,0,0,1.5-1.5v-9A1.5,1.5,0,0,0,59.7-20.953Zm-.3,3.188L54.495-14.7a1.486,1.486,0,0,1-1.59,0L48-17.765a.642.642,0,0,1-.3-.54.637.637,0,0,1,.975-.54L53.7-15.7l5.025-3.142a.637.637,0,0,1,.975.54A.642.642,0,0,1,59.4-17.765Z" fill="#313131"/>
    </clipPath>
    <clipPath id="clip-path-4">
      <path id="Path_71" data-name="Path 71" d="M-70,129H250V-5649H-70Z" fill="#313131"/>
    </clipPath>
  </defs>
  <g id="Group_102" data-name="Group 102" transform="translate(-970.4 -5470)">
    <g id="Group_98" data-name="Group 98" transform="translate(932 5500)" clip-path="url(#clip-path)">
      <g id="Group_97" data-name="Group 97" clip-path="url(#clip-path-2)">
        <path id="Path_67" data-name="Path 67" d="M33.4-35h40V5h-40Z" fill="#fdf7fb"/>
      </g>
    </g>
    <g id="Group_100" data-name="Group 100" transform="translate(932 5500)" clip-path="url(#clip-path-3)" style="mix-blend-mode: multiply;isolation: isolate">
      <g id="Group_99" data-name="Group 99" clip-path="url(#clip-path-4)">
        <path id="Path_70" data-name="Path 70" d="M41.2-25.953h25v22h-25Z" fill="#313131"/>
      </g>
    </g>
  </g>
</svg>
