<svg id="Logo_White" data-name="Logo White" xmlns="http://www.w3.org/2000/svg" width="204.885" height="15.996" viewBox="0 0 204.885 15.996">
  <path id="Path_1" data-name="Path 1" d="M18.8,465.289l-2.552,6.165q-1.927,4.7-3.848,9.4a.513.513,0,0,1-.594.386c-.507-.036-1.135.151-1.5-.086s-.452-.874-.642-1.342q-2.852-6.94-5.7-13.883c-.067-.164-.164-.316-.247-.474-.054-.214.1-.17.214-.17H6.189c.043.134.076.271.127.4Q8.6,471.345,10.89,477c.107.259.214.514.36.84l5.082-12.551Z" transform="translate(-3.707 -465.285)" fill="#fff"/>
  <path id="Path_2" data-name="Path 2" d="M384.63,467h10.981v1.876h-9.022v4.908h8.585v1.879h-8.588v4.97h9.278v1.927H384.63Z" transform="translate(-343.852 -466.816)" fill="#fff"/>
  <path id="Path_3" data-name="Path 3" d="M726.38,478.44l1.485-.749c1.38,2.7,4.944,3.249,7.446,2.387a2.515,2.515,0,0,0,1.927-2.5,1.9,1.9,0,0,0-1.178-1.82,13.609,13.609,0,0,0-2.248-.765c-1.235-.321-2.489-.557-3.731-.851a7.08,7.08,0,0,1-1-.365c-3.006-1.219-2.608-4.924-.642-6.276a6.552,6.552,0,0,1,3.462-1.166,14.949,14.949,0,0,1,3.131.17,5.11,5.11,0,0,1,3.581,2.676l-1.348.8c-.055-.02-.092-.022-.107-.041a4.118,4.118,0,0,0-3.465-1.993,7.343,7.343,0,0,0-3.308.4,2.491,2.491,0,0,0-1.684,1.67,1.677,1.677,0,0,0,.944,2.164,19.47,19.47,0,0,0,2.754.84c1.219.321,2.469.535,3.673.893a3.83,3.83,0,0,1,2.52,2.014,4.013,4.013,0,0,1-1.536,5.138c-2.233,1.361-6.723,1.582-9.329-.749A5.245,5.245,0,0,1,726.38,478.44Z" transform="translate(-649.017 -466.2)" fill="#fff"/>
  <path id="Path_4" data-name="Path 4" d="M1098.691,484.3h-1.421V469.281a2.2,2.2,0,0,1,.274-.034c2.215,0,4.431-.017,6.646,0a4.644,4.644,0,0,1,4.587,4.068,4.882,4.882,0,0,1-2.826,5.489,7.342,7.342,0,0,1-2.243.393c-1.5.059-3.01.017-4.516.017h-.5Zm.028-13.7v7.25c1.919,0,3.808,0,5.694-.008a2.365,2.365,0,0,0,.7-.158,3.573,3.573,0,0,0,2.255-4.068,3.308,3.308,0,0,0-3.182-3c-1.205-.045-2.414-.017-3.62-.02Z" transform="translate(-980.203 -468.816)" fill="#fff"/>
  <path id="Path_5" data-name="Path 5" d="M1459.215,484.451h9.26v1.089h-10.4V470.8h10.15v1.061h-9.006v5.7h8.6v1.081h-8.6Z" transform="translate(-1302.38 -470.21)" fill="#fff"/>
  <path id="Path_6" data-name="Path 6" d="M1807.316,6.28h-.436v.41Z" transform="translate(-1613.452 -5.607)" fill="#fff"/>
  <path id="Path_7" data-name="Path 7" d="M1902.665,604.241h.346a2.018,2.018,0,0,1-.791-.411Z" transform="translate(-1698.983 -588.999)" fill="#fff"/>
  <path id="Path_8" data-name="Path 8" d="M1913.312,603.074h0l-.2-.214.027.029Z" transform="translate(-1708.707 -588.133)" fill="#fff"/>
  <path id="Path_9" data-name="Path 9" d="M1821.767,485.676l-.175-.188-.027-.029-.05-.055h0q-1.713-1.852-3.419-3.707c-.389-.421-.776-.843-1.159-1.259l-.056-.06.236-.021h0c.255-.024.512-.041.766-.076a4.093,4.093,0,0,0,3.389-2.256,4.525,4.525,0,0,0-4.025-6.614c-2.114-.048-4.231-.008-6.346-.006a2.553,2.553,0,0,0-.312.036v14.535h.938V480.41h.261c1.206,0,2.414-.013,3.619.011a.841.841,0,0,1,.524.28c1.332,1.435,2.692,2.846,3.952,4.344.026.031.052.061.079.091h0l.01.01q.067.077.135.148l.025.022.619.658h1.3l-.277-.3Zm-10.016-6.179h-.2v-7.225h5.379c3.325,0,4.462,3.138,3.318,5.492a3.209,3.209,0,0,1-3.065,1.723C1815.372,479.537,1813.562,479.5,1811.751,479.5Z" transform="translate(-1617.162 -470.735)" fill="#fff"/>
</svg>
