<svg xmlns="http://www.w3.org/2000/svg" width="24.53" height="13.165" viewBox="0 0 24.53 13.165">
  <g id="west_black_24dp" opacity="0.623">
    <g id="west_black_24dp-2" data-name="west_black_24dp" transform="translate(21.592 18.583) rotate(180)">
      <path id="Path_10" data-name="Path 10" d="M14.29,5.71h0a1,1,0,0,0,0,1.41L18.17,11H-1.854a1.056,1.056,0,0,0-1.084.974h0A1.1,1.1,0,0,0-1.854,13H18.18L14.3,16.88a1,1,0,0,0,0,1.41h0a1,1,0,0,0,1.41,0L21.3,12.7a1,1,0,0,0,0-1.41L15.7,5.71A1,1,0,0,0,14.29,5.71Z" fill="#fff"/>
    </g>
  </g>
</svg>
